HIERARCHY
ROOT Hips
{
	OFFSET 0.000000 0.000000 0.000000
	CHANNELS 6 Xposition Yposition Zposition Xrotation Yrotation Zrotation
	JOINT LeftUpLeg_virtual
	{
		OFFSET 0.000000 0.000000 0.000000
		CHANNELS 3 Xrotation Yrotation Zrotation
		JOINT LeftUpLeg
		{
			OFFSET 13.026900 -6.336304 -1.092800
			CHANNELS 3 Xrotation Yrotation Zrotation
			JOINT LeftLeg
			{
				OFFSET 0.524474 -46.096886 9.782700
				CHANNELS 3 Xrotation Yrotation Zrotation
				JOINT LeftFoot
				{
					OFFSET -0.524474 -53.427422 -12.948200
					CHANNELS 3 Xrotation Yrotation Zrotation
					JOINT LeftToeBase
					{
						OFFSET 0.192200 -14.009700 16.364100
						CHANNELS 3 Xrotation Yrotation Zrotation
						JOINT LeftToe_End
						{
							OFFSET -1.784700 -0.561700 9.474800
							CHANNELS 3 Xrotation Yrotation Zrotation
							End Site
							{
								OFFSET 0 0 0
							}
						}
					}
				}
			}
		}
	}
	JOINT RightUpLeg_virtual
	{
		OFFSET 0.000000 0.000000 0.000000
		CHANNELS 3 Xrotation Yrotation Zrotation
		JOINT RightUpLeg
		{
			OFFSET -12.883000 -6.336304 -1.092800
			CHANNELS 3 Xrotation Yrotation Zrotation
			JOINT RightLeg
			{
				OFFSET -0.524587 -46.096825 9.782800
				CHANNELS 3 Xrotation Yrotation Zrotation
				JOINT RightFoot
				{
					OFFSET 0.524587 -53.427383 -12.948300
					CHANNELS 3 Xrotation Yrotation Zrotation
					JOINT RightToeBase
					{
						OFFSET -0.192200 -14.009700 16.364100
						CHANNELS 3 Xrotation Yrotation Zrotation
						JOINT RightToe_End
						{
							OFFSET 1.784700 -0.561700 9.474800
							CHANNELS 3 Xrotation Yrotation Zrotation
							End Site
							{
								OFFSET 0 0 0
							}
						}
					}
				}
			}
		}
	}
	JOINT Spine_virtual
	{
		OFFSET 0.000000 0.000000 0.000000
		CHANNELS 3 Xrotation Yrotation Zrotation
		JOINT Spine
		{
			OFFSET 0.072000 7.257294 -0.789700
			CHANNELS 3 Xrotation Yrotation Zrotation
			JOINT Spine1
			{
				OFFSET 0.000000 12.508769 -0.658067
				CHANNELS 3 Xrotation Yrotation Zrotation
				JOINT Spine1_split
				{
					OFFSET 0.000000 12.508769 -0.658067
					CHANNELS 3 Xrotation Yrotation Zrotation
					JOINT Spine2
					{
						OFFSET 0.000000 12.508769 -0.658067
						CHANNELS 3 Xrotation Yrotation Zrotation
						JOINT Neck_virtual
						{
							OFFSET 0.000000 0.000000 0.000000
							CHANNELS 3 Xrotation Yrotation Zrotation
							JOINT Neck
							{
								OFFSET 0.000000 14.033295 7.520400
								CHANNELS 3 Xrotation Yrotation Zrotation
								JOINT Head
								{
									OFFSET 0.000000 8.198502 5.703100
									CHANNELS 3 Xrotation Yrotation Zrotation
									JOINT HeadTop_End
									{
										OFFSET 0.000000 17.760803 13.332701
										CHANNELS 3 Xrotation Yrotation Zrotation
										End Site
										{
											OFFSET 0 0 0
										}
									}
								}
							}
						}
						JOINT LeftShoulder_virtual
						{
							OFFSET 0.000000 0.000000 0.000000
							CHANNELS 3 Xrotation Yrotation Zrotation
							JOINT LeftShoulder
							{
								OFFSET 6.292450 5.785301 -0.669000
								CHANNELS 3 Xrotation Yrotation Zrotation
								JOINT LeftShoulder_split
								{
									OFFSET 6.292450 5.785301 -0.669000
									CHANNELS 3 Xrotation Yrotation Zrotation
									JOINT LeftArm
									{
										OFFSET 13.907140 -6.093903 1.965100
										CHANNELS 3 Xrotation Yrotation Zrotation
										JOINT LeftForeArm
										{
											OFFSET 34.140198 0.000000 0.000000
											CHANNELS 3 Xrotation Yrotation Zrotation
											JOINT LeftHand
											{
												OFFSET 40.960209 0.000000 0.000000
												CHANNELS 3 Xrotation Yrotation Zrotation
												End Site
												{
													OFFSET 0 0 0
												}
											}
										}
									}
								}
							}
						}
						JOINT RightShoulder_virtual
						{
							OFFSET 0.000000 0.000000 0.000000
							CHANNELS 3 Xrotation Yrotation Zrotation
							JOINT RightShoulder
							{
								OFFSET -6.292450 5.785301 -0.669000
								CHANNELS 3 Xrotation Yrotation Zrotation
								JOINT RightShoulder_split
								{
									OFFSET -6.292450 5.785301 -0.669000
									CHANNELS 3 Xrotation Yrotation Zrotation
									JOINT RightArm
									{
										OFFSET -13.907140 -6.093903 1.965100
										CHANNELS 3 Xrotation Yrotation Zrotation
										JOINT RightForeArm
										{
											OFFSET -34.140198 0.000000 0.000000
											CHANNELS 3 Xrotation Yrotation Zrotation
											JOINT RightHand
											{
												OFFSET -40.960209 0.000000 0.000000
												CHANNELS 3 Xrotation Yrotation Zrotation
												End Site
												{
													OFFSET 0 0 0
												}
											}
										}
									}
								}
							}
						}
					}
				}
			}
		}
	}
}
MOTION
Frames: 7
Frame Time: 0.03333333
14.763595 174.376953 -18.577496 0.000000 0.000000 0.000000 -89.642749 -6.556903 -1.401865 5.614007 29.166697 7.660692 0.027797 -18.074383 -7.060983 16.471049 33.040217 -11.538455 7.721327 -0.626572 4.019014 0.000000 0.000000 0.000000 -87.706726 -2.820117 1.773232 0.211432 -13.843843 -8.613587 1.991909 12.181715 -10.230670 17.615341 -29.214280 20.843222 4.697114 -1.843090 -20.351223 0.000000 0.000000 0.000000 -91.126697 1.874488 5.009058 8.596291 -1.162914 -3.612848 11.494641 1.041743 -0.039786 0.060951 0.332121 -0.084287 0.000000 0.000000 0.000000 11.088203 3.202574 -0.475412 -15.974959 -7.025718 -3.322682 8.238496 -51.258821 25.653364 0.000000 0.000000 0.000000 10.064516 2.312199 -1.860345 3.567079 11.002219 -0.748088 7.732782 -6.245169 -1.434212 21.376387 -44.483622 -24.150323 -5.970393 -53.906291 -6.852799 0.000000 0.000000 0.000000 12.416619 2.142425 -1.327680 -1.944130 -0.059945 15.857030 12.430780 6.456217 7.138932 -25.426206 37.095181 70.284552 168.451548 73.399597 -176.946678 0.000000 0.000000 0.000000 
14.611203 174.345749 -18.525036 0.000000 0.000000 0.000000 -89.863604 -6.853608 -1.673542 5.489414 29.237748 7.806076 0.454978 -17.835185 -6.824969 16.908248 32.989144 -11.966905 7.595011 -0.613873 4.071813 0.000000 0.000000 0.000000 -87.789350 -2.833766 1.711956 0.516247 -13.859727 -8.180423 1.466198 11.764658 -10.308474 17.344454 -29.448893 20.261249 3.959092 -1.677156 -20.399326 0.000000 0.000000 0.000000 -91.360829 1.629992 4.848721 8.477785 -1.361808 -3.602183 11.058279 0.887370 0.131491 0.039074 0.345188 -0.090953 0.000000 0.000000 0.000000 10.618916 3.057177 -0.330809 -15.228928 -6.802591 -3.424540 8.876309 -51.052789 26.791108 0.000000 0.000000 0.000000 9.711323 2.133956 -1.819664 3.669960 11.114502 -1.512920 7.487743 -6.303217 -1.419691 23.043221 -44.225731 -23.646421 -7.080507 -54.235882 -7.313312 0.000000 0.000000 0.000000 12.210740 2.101048 -1.140338 -1.990858 -0.328356 15.697621 12.731145 7.264033 6.770927 -25.182380 37.144075 70.147006 169.269914 74.751776 -177.446703 0.000000 0.000000 0.000000 
14.491075 174.296906 -18.446735 0.000000 0.000000 0.000000 -89.924064 -6.984455 -1.954915 4.925627 29.377972 8.151783 0.911601 -17.677814 -6.597130 17.806873 32.734447 -12.610428 7.527149 -0.600958 4.116367 0.000000 0.000000 0.000000 -87.728056 -2.749161 1.565879 0.305246 -13.767132 -7.952754 1.122473 11.411662 -10.280206 18.106874 -29.497688 20.211573 3.424673 -1.552243 -20.374811 0.000000 0.000000 0.000000 -91.342681 1.622655 4.735829 8.314008 -1.646011 -3.544547 10.500428 0.689361 0.347617 0.026127 0.377294 -0.106225 0.000000 0.000000 0.000000 10.014397 2.888819 -0.176255 -14.582995 -6.688616 -3.233747 9.252302 -50.840861 27.662886 0.000000 0.000000 0.000000 9.259804 1.906890 -1.676474 3.731229 10.934401 -2.116344 7.141889 -6.263148 -1.483128 24.659107 -43.631375 -23.828966 -7.874749 -54.722110 -7.564032 0.000000 0.000000 0.000000 11.856510 2.007513 -0.940681 -2.008816 -0.663111 15.453248 12.997462 7.905093 6.503133 -24.546819 37.333985 69.637235 170.281233 75.785819 -178.125542 0.000000 0.000000 0.000000 
14.394174 174.252747 -18.348797 0.000000 0.000000 0.000000 -89.835777 -6.975878 -2.246664 4.085323 29.554386 8.595942 1.275441 -17.585413 -6.396718 18.855774 32.317341 -13.243553 7.485670 -0.593846 4.155104 0.000000 0.000000 0.000000 -87.556605 -2.596613 1.382990 -0.249545 -13.586074 -7.855045 0.916343 11.155852 -10.178124 19.462938 -29.448774 20.451205 3.157005 -1.485677 -20.273506 0.000000 0.000000 0.000000 -91.125406 1.756401 4.584985 8.096557 -1.962590 -3.455504 9.843157 0.465753 0.593919 0.022642 0.421244 -0.129559 0.000000 0.000000 0.000000 9.292080 2.702602 -0.008872 -14.077508 -6.674850 -2.897817 9.296197 -50.651409 28.165108 0.000000 0.000000 0.000000 8.703857 1.654703 -1.451994 3.742559 10.505767 -2.578115 6.654512 -6.122606 -1.747789 26.065884 -42.738160 -24.821908 -8.207647 -55.220232 -7.491510 0.000000 0.000000 0.000000 11.360800 1.874082 -0.741824 -2.007796 -1.062925 15.119997 13.250317 8.335069 6.307714 -23.634362 37.676970 68.614106 171.097864 76.222343 -178.571853 0.000000 0.000000 0.000000 
14.332108 174.185089 -18.216442 0.000000 0.000000 0.000000 -89.693033 -6.912090 -2.519961 3.225669 29.658601 8.997387 1.411203 -17.552239 -6.240457 19.714836 31.822623 -13.659835 7.432142 -0.602368 4.194861 0.000000 0.000000 0.000000 -87.344459 -2.516718 1.122719 -0.985458 -13.387056 -7.806725 0.919953 10.853602 -10.059840 20.913459 -29.503965 20.599401 3.255077 -1.497291 -20.122606 0.000000 0.000000 0.000000 -90.809537 1.932965 4.405618 7.828140 -2.263374 -3.380399 9.118296 0.211239 0.853860 0.038222 0.474393 -0.145922 0.000000 0.000000 0.000000 8.499386 2.496253 0.180920 -13.722682 -6.748468 -2.594175 9.130459 -50.568487 28.313668 0.000000 0.000000 0.000000 8.062466 1.388420 -1.186627 3.709988 9.883532 -2.941865 5.988814 -5.804546 -2.199317 27.186634 -41.575939 -26.580388 -8.036218 -55.670481 -7.036765 0.000000 0.000000 0.000000 10.759176 1.703289 -0.550968 -1.993424 -1.483901 14.785994 13.466067 8.376621 6.041621 -22.514110 38.078226 67.175874 171.305065 76.132731 -178.357604 0.000000 0.000000 0.000000 
14.281028 174.132431 -18.079334 0.000000 0.000000 0.000000 -89.544074 -6.844565 -2.733418 2.574031 29.614034 9.261499 1.324713 -17.577405 -6.144953 20.218637 31.366186 -13.820586 7.381527 -0.625837 4.242580 0.000000 0.000000 0.000000 -87.220696 -2.608248 0.772107 -1.721034 -13.242042 -7.776214 1.154298 10.452176 -9.984865 22.056151 -29.748370 20.476866 3.692918 -1.558416 -19.971676 0.000000 0.000000 0.000000 -90.505075 2.013582 4.189232 7.494420 -2.515382 -3.343916 8.368924 -0.083359 1.100795 0.058272 0.512960 -0.166793 0.000000 0.000000 0.000000 7.673882 2.266592 0.384489 -13.522357 -6.881905 -2.442888 8.868102 -50.568723 28.153487 0.000000 0.000000 0.000000 7.386679 1.103530 -0.925172 3.636566 9.142845 -3.225236 5.174880 -5.341010 -2.723396 28.018066 -40.202012 -28.860203 -7.487148 -56.131526 -6.300675 0.000000 0.000000 0.000000 10.119982 1.505935 -0.373311 -1.983228 -1.843542 14.510100 13.626380 8.119492 5.836002 -21.152164 38.448463 65.354754 170.724075 75.944279 -177.323746 0.000000 0.000000 0.000000 
14.222556 174.088120 -17.922787 0.000000 0.000000 0.000000 -89.428575 -6.834701 -2.861996 2.269881 29.412004 9.339603 1.105157 -17.619141 -6.106771 20.322982 31.068809 -13.733518 7.364133 -0.659187 4.289766 0.000000 0.000000 0.000000 -87.146206 -2.806047 0.496591 -2.249177 -13.128649 -7.729845 1.362140 10.052428 -9.980832 22.632955 -30.085624 20.158429 3.901441 -1.558922 -19.926268 0.000000 0.000000 0.000000 -90.310243 1.950777 3.977333 7.080086 -2.701992 -3.353790 7.652984 -0.422546 1.308148 0.088530 0.523918 -0.181890 0.000000 0.000000 0.000000 6.862954 2.003530 0.579387 -13.446597 -7.037217 -2.518798 8.679701 -50.641000 27.781883 0.000000 0.000000 0.000000 6.721292 0.798984 -0.709776 3.535040 8.368068 -3.476143 4.354650 -4.734355 -3.234076 28.726864 -38.664786 -31.294540 -6.716367 -56.640105 -5.424116 0.000000 0.000000 0.000000 9.492910 1.285950 -0.222198 -1.988017 -2.037293 14.368500 13.883499 7.858091 5.715107 -19.543951 38.707761 63.336371 169.442759 75.976279 -175.599464 0.000000 0.000000 0.000000 
